<svg width="257" height="258" viewBox="0 0 257 258" fill="none" xmlns="http://www.w3.org/2000/svg">
<g opacity="0.2">
<path d="M99.9891 48.6875H32.125C23.2237 48.6875 16.0625 55.8487 16.0625 64.75V209.313C16.0625 218.214 23.2237 225.375 32.125 225.375H224.875C233.776 225.375 240.938 218.214 240.938 209.313V91.5208C240.938 82.6195 233.776 75.4583 224.875 75.4583H37.4792" stroke="#1E2327" stroke-width="10.7162" stroke-miterlimit="10"/>
<path d="M219.521 75.4583V64.75C219.521 55.8487 212.359 48.6875 203.458 48.6875L165.042 48.7544" stroke="#1E2327" stroke-width="10.7162" stroke-miterlimit="10"/>
<path d="M240.938 123.648H171.333C156.542 123.648 144.562 135.628 144.562 150.419C144.562 165.21 156.542 177.19 171.333 177.19H240.938" stroke="#1E2327" stroke-width="10.7162" stroke-miterlimit="10"/>
<path d="M176.688 145.062H165.979V155.771H176.688V145.062Z" fill="#1E2327"/>
<path d="M180.837 75.4581L148.578 20.9795L53.0059 75.4581" stroke="#1E2327" stroke-width="10.7162" stroke-miterlimit="10"/>
</g>
</svg>
