<svg width="34" height="35" viewBox="0 0 34 35" fill="none" xmlns="http://www.w3.org/2000/svg">
<path d="M7.49818 7.99826C8.05143 7.44502 8.94841 7.44502 9.50165 7.99826L16.9999 15.4965L24.4982 7.99826C25.0514 7.44502 25.9484 7.44502 26.5017 7.99826C27.0549 8.5515 27.0549 9.44849 26.5017 10.0017L19.0034 17.5L26.5017 24.9983C27.0549 25.5515 27.0549 26.4485 26.5017 27.0017C25.9484 27.555 25.0514 27.555 24.4982 27.0017L16.9999 19.5035L9.50165 27.0017C8.94841 27.555 8.05143 27.555 7.49818 27.0017C6.94494 26.4485 6.94494 25.5515 7.49818 24.9983L14.9965 17.5L7.49818 10.0017C6.94494 9.44849 6.94494 8.5515 7.49818 7.99826Z" fill="#0D0D0D"/>
</svg>
