<svg width="31" height="30" viewBox="0 0 31 30" fill="none" xmlns="http://www.w3.org/2000/svg">
<path d="M28.458 28.1249H2.83301" stroke="#BDC5CC" stroke-width="1.24106" stroke-miterlimit="10"/>
<path d="M16.5986 25H22.208" stroke="#BDC5CC" stroke-width="1.24106" stroke-miterlimit="10"/>
<path d="M2.83301 3.12477V9.37477C2.83301 9.70629 2.96471 10.0242 3.19913 10.2587C3.43355 10.4931 3.75149 10.6248 4.08301 10.6248H8.36426L12.833 13.1248V10.6248H13.458C13.7895 10.6248 14.1075 10.4931 14.3419 10.2587C14.5763 10.0242 14.708 9.70629 14.708 9.37477V3.12477C14.708 2.79325 14.5763 2.47531 14.3419 2.24089C14.1075 2.00647 13.7895 1.87477 13.458 1.87477H4.08301C3.75149 1.87477 3.43355 2.00647 3.19913 2.24089C2.96471 2.47531 2.83301 2.79325 2.83301 3.12477Z" stroke="#BDC5CC" stroke-width="1.24106" stroke-miterlimit="10"/>
<path d="M25.333 28.125V21.875C25.333 21.0462 25.0038 20.2514 24.4177 19.6653C23.8317 19.0793 23.0368 18.75 22.208 18.75H17.208C16.3792 18.75 15.5843 19.0793 14.9983 19.6653C14.4122 20.2514 14.083 21.0462 14.083 21.875" stroke="#BDC5CC" stroke-width="1.24106" stroke-miterlimit="10"/>
<path d="M19.708 16.2497C17.9821 16.2497 16.583 14.8506 16.583 13.1247C16.583 11.3988 17.9821 9.99966 19.708 9.99966C21.4339 9.99966 22.833 11.3988 22.833 13.1247C22.833 14.8506 21.4339 16.2497 19.708 16.2497Z" stroke="#BDC5CC" stroke-width="1.24106" stroke-miterlimit="10"/>
<path d="M7.48926 28.1248L5.70801 21.8748H15.708L17.4893 28.1248" stroke="#BDC5CC" stroke-width="1.24106" stroke-miterlimit="10"/>
</svg>
