<svg width="31" height="30" viewBox="0 0 31 30" fill="none" xmlns="http://www.w3.org/2000/svg">
<g clip-path="url(#clip0_1275_323)">
<path d="M22.7083 10.4061V16.8748" stroke="#BDC5CC" stroke-width="1.24106" stroke-miterlimit="10"/>
<path d="M12.0833 26.2502L7.52857 21.6955C7.38854 21.5554 7.2223 21.4443 7.03932 21.3685C6.85634 21.2927 6.66022 21.2536 6.46216 21.2536C6.2641 21.2536 6.06798 21.2927 5.885 21.3685C5.70202 21.4443 5.53577 21.5554 5.39575 21.6955L1.7395 25.3517" stroke="#BDC5CC" stroke-width="1.24106" stroke-miterlimit="10"/>
<path d="M8.95825 23.1248L12.2629 19.8201C12.403 19.68 12.5692 19.5689 12.7522 19.4931C12.9352 19.4172 13.1313 19.3782 13.3293 19.3782C13.5274 19.3782 13.7235 19.4172 13.9065 19.4931C14.0895 19.5689 14.2557 19.68 14.3958 19.8201L16.4583 21.8748" stroke="#BDC5CC" stroke-width="1.24106" stroke-miterlimit="10"/>
<path d="M10.5129 27.8201L20.5754 17.7576C20.8555 17.4775 21.188 17.2552 21.5539 17.1036C21.9199 16.952 22.3121 16.8739 22.7083 16.8739C23.1044 16.8739 23.4966 16.952 23.8626 17.1036C24.2285 17.2552 24.561 17.4775 24.8411 17.7576L29.9739 22.8904" stroke="#BDC5CC" stroke-width="1.24106" stroke-miterlimit="10"/>
<path d="M15.8176 10.6251C15.4132 10.6248 15.0117 10.5562 14.6301 10.422L12.7083 9.75009V3.50009L14.6301 4.17196C15.1156 4.34199 15.632 4.40557 16.1443 4.35839C16.6565 4.31121 17.1526 4.15437 17.5989 3.89853L18.2239 3.53915C18.6693 3.28459 19.1696 3.14104 19.6822 3.12064C20.1949 3.10025 20.7049 3.2036 21.1692 3.42196L22.7083 4.15634V10.4063L21.1692 9.67978C20.7049 9.46141 20.1949 9.35806 19.6822 9.37846C19.1696 9.39885 18.6693 9.5424 18.2239 9.79696L17.5989 10.1563C17.0561 10.465 16.4421 10.6266 15.8176 10.6251V10.6251Z" stroke="#BDC5CC" stroke-width="1.24106" stroke-miterlimit="10"/>
</g>
<defs>
<clipPath id="clip0_1275_323">
<rect width="30" height="30" fill="white" transform="matrix(-1 0 0 1 30.8333 0)"/>
</clipPath>
</defs>
</svg>
