<svg width="61" height="60" viewBox="0 0 61 60" fill="none" xmlns="http://www.w3.org/2000/svg">
<g clip-path="url(#clip0_766_3421)">
<path d="M10.5 15C13.2614 15 15.5 12.7614 15.5 10C15.5 7.23858 13.2614 5 10.5 5C7.73858 5 5.5 7.23858 5.5 10C5.5 12.7614 7.73858 15 10.5 15Z" stroke="#9A2538" stroke-width="2.50185" stroke-miterlimit="10"/>
<path d="M1.75 28.75V24.375C1.75 23.2147 2.21094 22.1019 3.03141 21.2814C3.85188 20.4609 4.96468 20 6.125 20H14.875C16.0353 20 17.1481 20.4609 17.9686 21.2814C18.7891 22.1019 19.25 23.2147 19.25 24.375V28.75" stroke="#9A2538" stroke-width="2.50185" stroke-miterlimit="10"/>
<path d="M50.5 15C53.2614 15 55.5 12.7614 55.5 10C55.5 7.23858 53.2614 5 50.5 5C47.7386 5 45.5 7.23858 45.5 10C45.5 12.7614 47.7386 15 50.5 15Z" stroke="#9A2538" stroke-width="2.50185" stroke-miterlimit="10"/>
<path d="M41.75 28.75V24.375C41.75 23.2147 42.2109 22.1019 43.0314 21.2814C43.8519 20.4609 44.9647 20 46.125 20H54.875C56.0353 20 57.1481 20.4609 57.9686 21.2814C58.7891 22.1019 59.25 23.2147 59.25 24.375V28.75" stroke="#9A2538" stroke-width="2.50185" stroke-miterlimit="10"/>
<path d="M30.5 45C33.2614 45 35.5 42.7614 35.5 40C35.5 37.2386 33.2614 35 30.5 35C27.7386 35 25.5 37.2386 25.5 40C25.5 42.7614 27.7386 45 30.5 45Z" stroke="#9A2538" stroke-width="2.50185" stroke-miterlimit="10"/>
<path d="M21.75 58.751V54.376C21.75 53.2157 22.2109 52.1029 23.0314 51.2824C23.8519 50.4619 24.9647 50.001 26.125 50.001H34.875C36.0353 50.001 37.1481 50.4619 37.9686 51.2824C38.7891 52.1029 39.25 53.2157 39.25 54.376V58.751" stroke="#9A2538" stroke-width="2.50185" stroke-miterlimit="10"/>
<path d="M40.0625 5.64091C33.9486 3.11991 27.0867 3.1143 20.9688 5.62529" stroke="#9A2538" stroke-width="2.50185" stroke-miterlimit="10"/>
<path d="M43.4219 50.1563C46.5279 48.2816 49.189 45.7538 51.2206 42.7482C53.2523 39.7425 54.6058 36.3309 55.1875 32.75" stroke="#9A2538" stroke-width="2.50185" stroke-miterlimit="10"/>
<path d="M17.5781 50.1563C14.4721 48.2816 11.811 45.7538 9.7794 42.7482C7.74775 39.7425 6.39417 36.3309 5.8125 32.75" stroke="#9A2538" stroke-width="2.50185" stroke-miterlimit="10"/>
</g>
<defs>
<clipPath id="clip0_766_3421">
<rect width="60" height="60" fill="white" transform="translate(0.5)"/>
</clipPath>
</defs>
</svg>
