<svg width="60" height="60" viewBox="0 0 60 60" fill="none" xmlns="http://www.w3.org/2000/svg">
<path d="M31.25 3.74902L3.75 31.249L28.75 56.249L56.25 28.749V3.74902H31.25Z" stroke="#9A2538" stroke-width="2.50185" stroke-miterlimit="10"/>
<path d="M51.25 8.74902H48.75V11.249H51.25V8.74902Z" fill="#9A2538"/>
<path d="M31.25 41.248V37.498" stroke="#9A2538" stroke-width="2.50185" stroke-miterlimit="10"/>
<path d="M31.25 16.249V19.999" stroke="#9A2538" stroke-width="2.50185" stroke-miterlimit="10"/>
<path d="M38.75 24.999V23.749C38.75 22.7545 38.3549 21.8006 37.6516 21.0974C36.9484 20.3941 35.9946 19.999 35 19.999H27.5C26.5054 19.999 25.5516 20.3941 24.8483 21.0974C24.1451 21.8006 23.75 22.7545 23.75 23.749V24.999C23.75 25.9936 24.1451 26.9474 24.8483 27.6507C25.5516 28.3539 26.5054 28.749 27.5 28.749H35C35.9946 28.749 36.9484 29.1441 37.6516 29.8474C38.3549 30.5506 38.75 31.5045 38.75 32.499V33.749C38.75 34.7436 38.3549 35.6974 37.6516 36.4007C36.9484 37.1039 35.9946 37.499 35 37.499H27.5C26.5054 37.499 25.5516 37.1039 24.8483 36.4007C24.1451 35.6974 23.75 34.7436 23.75 33.749V32.499" stroke="#9A2538" stroke-width="2.50185" stroke-miterlimit="10"/>
</svg>
