<svg width="61" height="60" viewBox="0 0 61 60" fill="none" xmlns="http://www.w3.org/2000/svg">
<path d="M25.332 53.75H9.08203C8.08747 53.75 7.13364 53.3549 6.43038 52.6517C5.72712 51.9484 5.33203 50.9946 5.33203 50V11.25C5.33203 10.2554 5.72712 9.30161 6.43038 8.59835C7.13364 7.89509 8.08747 7.5 9.08203 7.5H49.082C50.0766 7.5 51.0304 7.89509 51.7337 8.59835C52.4369 9.30161 52.832 10.2554 52.832 11.25V23.75" stroke="#9A2538" stroke-width="2.50185" stroke-miterlimit="10"/>
<path d="M42.832 2.5V12.5" stroke="#9A2538" stroke-width="2.50185" stroke-miterlimit="10"/>
<path d="M15.332 2.5V12.5" stroke="#9A2538" stroke-width="2.50185" stroke-miterlimit="10"/>
<path d="M5.33203 20.001H52.832" stroke="#9A2538" stroke-width="2.50185" stroke-miterlimit="10"/>
<path d="M42.832 57.5C51.1163 57.5 57.832 50.7843 57.832 42.5C57.832 34.2157 51.1163 27.5 42.832 27.5C34.5478 27.5 27.832 34.2157 27.832 42.5C27.832 50.7843 34.5478 57.5 42.832 57.5Z" stroke="#9A2538" stroke-width="2.50185" stroke-miterlimit="10"/>
<path d="M42.832 31.25V42.5L49.832 49.5" stroke="#9A2538" stroke-width="2.50185" stroke-miterlimit="10"/>
<path d="M11.582 26.25H21.582V36.25H11.582V26.25Z" stroke="#9A2538" stroke-width="2.50185" stroke-miterlimit="10"/>
</svg>
